<?xml version="1.0" encoding="UTF-8"?>
<svg width="200px" height="45px" viewBox="0 0 200 45" version="1.1" xmlns="http://www.w3.org/2000/svg" xmlns:xlink="http://www.w3.org/1999/xlink">
    <!-- Generator: Sketch 44.1 (41455) - http://www.bohemiancoding.com/sketch -->
    <title>Slice 1</title>
    <desc>Created with Sketch.</desc>
    <defs></defs>
    <g id="Page-1" stroke="none" stroke-width="1" fill="none" fill-rule="evenodd">
        <g id="Group" fill-rule="nonzero">
            <g id="g18" transform="translate(98.000000, 22.333332) scale(1, -1) translate(-98.000000, -22.333332) translate(0.000000, 0.333332)">
                <g id="g24" transform="translate(49.303999, 1.072267)" fill="#fff">
                    <path d="M2.6666666,1.3333333 C2.84799993,1.32666663 3.12133326,1.45999996 3.12133326,1.62666663 L3.12133326,2.5866666 C3.02133326,2.68133327 2.7946666,2.7346666 2.5666666,2.7346666 L2.11333328,2.7346666 C1.77333329,2.7346666 1.51999996,2.5746666 1.51999996,2.24799994 L1.51999996,1.89333329 C1.51999996,1.55999996 1.77333329,1.3333333 2.11333328,1.3333333 L2.6666666,1.3333333 Z M4.0879999,0.566666653 L3.13999992,0.566666653 L3.13999992,0.779999981 C2.95466659,0.605333318 2.7266666,0.511999987 2.53999994,0.511999987 L1.98666662,0.511999987 C1.13866664,0.511999987 0.551999986,1.15199997 0.551999986,1.89333329 L0.551999986,2.25333328 C0.551999986,2.98133326 1.1453333,3.55599991 1.99999995,3.55599991 L2.52799994,3.55599991 C2.71999993,3.55599991 2.99999992,3.51599991 3.12133326,3.42133325 L3.12133326,3.64799991 C3.12133326,4.0559999 2.74133326,4.26266656 2.42666661,4.26266656 L2.17999995,4.26266656 C1.86533329,4.26266656 1.56666663,4.1159999 1.56666663,3.9359999 L0.598666652,3.9359999 C0.598666652,4.50266655 1.21866664,5.07733321 2.17333328,5.07733321 L2.4666666,5.07733321 C3.37466658,5.07733321 4.0879999,4.59599989 4.0879999,3.50133325 L4.0879999,0.566666653 Z" id="path26"></path>
                </g>
                <g id="g28" transform="translate(54.879599, 0.399067)" fill="#fff">
                    <path d="M3.9999999,2.6666666 C3.9999999,1.67999996 3.31866658,1.17199997 2.40533327,1.17199997 L2.08399995,1.17199997 C1.20399997,1.17199997 0.475999988,1.67999996 0.475999988,2.7666666 L0.475999988,4.1479999 C0.475999988,5.23599987 1.1973333,5.75066652 2.08399995,5.75066652 L2.37199994,5.75066652 C3.29333325,5.75066652 3.97333323,5.25599987 3.97333323,4.26133323 L3.00533326,4.26133323 C3.00533326,4.77599988 2.6986666,4.93599988 2.37199994,4.93599988 L2.08399995,4.93599988 C1.77066662,4.93599988 1.44399996,4.69466655 1.44399996,4.15466656 L1.44399996,2.75999993 C1.44399996,2.21333328 1.77066662,1.99333328 2.08399995,1.99333328 L2.40533327,1.99333328 C2.73199993,1.99333328 3.03199992,2.19333328 3.03199992,2.6666666 L3.9999999,2.6666666 Z" id="path30"></path>
                </g>
                <g id="g32" transform="translate(60.775332, 0.744133)" fill="#fff">
                    <path d="M0,6.6666665 L0.967999976,6.6666665 L0.967999976,4.99733321 C1.1813333,5.1653332 1.52799996,5.31066653 1.99466662,5.31066653 C2.8426666,5.31066653 3.52933325,4.81733321 3.52933325,3.8039999 L3.52933325,0.894666644 L2.5626666,0.894666644 L2.5626666,3.77733324 C2.5626666,4.29066656 2.24266661,4.50399989 1.90933329,4.50399989 L1.73466662,4.50399989 C1.31466663,4.50399989 0.967999976,4.19066656 0.967999976,3.89733324 L0.967999976,0.894666644 L0,0.894666644 L0,6.6666665 Z" id="path34"></path>
                </g>
                <path d="M66.5359983,5.64133317 L67.5039983,5.64133317 L67.5039983,1.6386666 L66.5359983,1.6386666 L66.5359983,5.64133317 Z M67.0093316,7.55066645 C67.4093316,7.55066645 67.6373316,7.42399979 67.6373316,6.89066647 C67.6373316,6.35599982 67.4093316,6.22933315 67.0093316,6.22933315 C66.6093316,6.22933315 66.382665,6.35599982 66.382665,6.89066647 C66.382665,7.42399979 66.6093316,7.55066645 67.0093316,7.55066645 L67.0093316,7.55066645 Z" id="path36" fill="#fff"></path>
                <g id="g38" transform="translate(69.742798, 0.675200)" fill="#fff">
                    <path d="M0,5.3333332 L0.967999976,5.3333332 L0.967999976,5.06666654 C1.1813333,5.23466654 1.49466663,5.37999987 1.96266662,5.37999987 C2.80799993,5.37999987 3.49599991,4.88666654 3.49599991,3.8719999 L3.49599991,0.963999976 L2.52799994,0.963999976 L2.52799994,3.84666657 C2.52799994,4.35999989 2.20799994,4.57333322 1.87466662,4.57333322 L1.70133329,4.57333322 C1.2813333,4.57333322 0.967999976,4.25866656 0.967999976,3.96666657 L0.967999976,0.963999976 L0,0.963999976 L0,5.3333332 Z" id="path40"></path>
                </g>
                <g id="g42" transform="translate(75.138665, 1.406933)" fill="#fff">
                    <path d="M2.6666666,2.6666666 L2.6666666,2.99333326 C2.6666666,3.63466658 2.33199994,3.9279999 1.96666662,3.9279999 L1.72533329,3.9279999 C1.35866663,3.9279999 1.03066664,3.64799991 1.03066664,2.97999993 L1.03066664,2.6666666 L2.6666666,2.6666666 Z M3.63466658,2.41866661 C3.63466658,2.07999995 3.46799991,1.85333329 3.06666659,1.85333329 L1.03066664,1.85333329 L1.03066664,1.75199996 C1.03066664,1.25866664 1.3853333,0.985333309 1.73199996,0.985333309 L2.00533328,0.985333309 C2.35333327,0.985333309 2.54533327,1.17866664 2.6066666,1.37199997 L3.58666658,1.37199997 C3.43999991,0.643999984 2.81999993,0.163999996 2.05199995,0.163999996 L1.73866662,0.163999996 C0.845333312,0.163999996 0.0639999984,0.718666649 0.0639999984,1.85333329 L0.0639999984,3.06799992 C0.0639999984,4.02133323 0.638666651,4.74266655 1.71199996,4.74266655 L1.95999995,4.74266655 C3.06666659,4.74266655 3.63466658,3.9879999 3.63466658,3.03333326 L3.63466658,2.41866661 Z" id="path44"></path>
                </g>
                <g id="g46" transform="translate(84.369198, 0.744133)" fill="#fff">
                    <path d="M1.3333333,6.6666665 L1.3333333,1.71466662 L3.9759999,1.71466662 L3.9759999,1.55466663 C3.9759999,1.25999997 3.61599991,0.894666644 3.33599992,0.894666644 L0.365333324,0.894666644 L0.365333324,6.6666665 L1.3333333,6.6666665 Z" id="path48"></path>
                </g>
                <g id="g50" transform="translate(89.878264, 1.406933)" fill="#fff">
                    <path d="M2.6666666,2.6666666 L2.6666666,2.99333326 C2.6666666,3.63466658 2.33199994,3.9279999 1.96666662,3.9279999 L1.72533329,3.9279999 C1.35866663,3.9279999 1.03066664,3.64799991 1.03066664,2.97999993 L1.03066664,2.6666666 L2.6666666,2.6666666 Z M3.63466658,2.41866661 C3.63466658,2.07999995 3.46799991,1.85333329 3.06666659,1.85333329 L1.03066664,1.85333329 L1.03066664,1.75199996 C1.03066664,1.25866664 1.3853333,0.985333309 1.73199996,0.985333309 L2.00533328,0.985333309 C2.35333327,0.985333309 2.54533327,1.17866664 2.6066666,1.37199997 L3.58666658,1.37199997 C3.43999991,0.643999984 2.81999993,0.163999996 2.05199995,0.163999996 L1.73866662,0.163999996 C0.845333312,0.163999996 0.0639999984,0.718666649 0.0639999984,1.85333329 L0.0639999984,3.06799992 C0.0639999984,4.02133323 0.638666651,4.74266655 1.71199996,4.74266655 L1.95999995,4.74266655 C3.06666659,4.74266655 3.63466658,3.9879999 3.63466658,3.03333326 L3.63466658,2.41866661 Z" id="path52"></path>
                </g>
                <g id="g54" transform="translate(94.803998, 1.072267)" fill="#fff">
                    <path d="M2.6666666,1.3333333 C2.84799993,1.32666663 3.12133326,1.45999996 3.12133326,1.62666663 L3.12133326,2.5866666 C3.02133326,2.68133327 2.7946666,2.7346666 2.5666666,2.7346666 L2.11333328,2.7346666 C1.77333329,2.7346666 1.51999996,2.5746666 1.51999996,2.24799994 L1.51999996,1.89333329 C1.51999996,1.55999996 1.77333329,1.3333333 2.11333328,1.3333333 L2.6666666,1.3333333 Z M4.0879999,0.566666653 L3.13999992,0.566666653 L3.13999992,0.779999981 C2.95466659,0.605333318 2.7266666,0.511999987 2.53999994,0.511999987 L1.98666662,0.511999987 C1.13866664,0.511999987 0.551999986,1.15199997 0.551999986,1.89333329 L0.551999986,2.25333328 C0.551999986,2.98133326 1.1453333,3.55599991 1.99999995,3.55599991 L2.52799994,3.55599991 C2.71999993,3.55599991 2.99999992,3.51599991 3.12133326,3.42133325 L3.12133326,3.64799991 C3.12133326,4.0559999 2.74133326,4.26266656 2.42666661,4.26266656 L2.17999995,4.26266656 C1.86533329,4.26266656 1.56666663,4.1159999 1.56666663,3.9359999 L0.598666652,3.9359999 C0.598666652,4.50266655 1.21866664,5.07733321 2.17333328,5.07733321 L2.4666666,5.07733321 C3.37466658,5.07733321 4.0879999,4.59599989 4.0879999,3.50133325 L4.0879999,0.566666653 Z" id="path56"></path>
                </g>
                <g id="g58" transform="translate(100.589197, 0.675200)" fill="#fff">
                    <path d="M1.3333333,5.3333332 L1.3333333,4.85333321 C1.49999996,5.11333321 1.85466662,5.49999986 2.7746666,5.4613332 L2.7746666,4.59999989 C1.86133329,4.63333322 1.3333333,4.01333323 1.3333333,3.41199991 L1.3333333,0.963999976 L0.365333324,0.963999976 L0.365333324,5.3333332 L1.3333333,5.3333332 Z" id="path60"></path>
                </g>
                <g id="g62" transform="translate(105.195997, 0.675200)" fill="#fff">
                    <path d="M0,5.3333332 L0.967999976,5.3333332 L0.967999976,5.06666654 C1.1813333,5.23466654 1.49466663,5.37999987 1.96266662,5.37999987 C2.80799993,5.37999987 3.49599991,4.88666654 3.49599991,3.8719999 L3.49599991,0.963999976 L2.52799994,0.963999976 L2.52799994,3.84666657 C2.52799994,4.35999989 2.20799994,4.57333322 1.87466662,4.57333322 L1.70133329,4.57333322 C1.2813333,4.57333322 0.967999976,4.25866656 0.967999976,3.96666657 L0.967999976,0.963999976 L0,0.963999976 L0,5.3333332 Z" id="path64"></path>
                </g>
                <path d="M110.922664,5.64133317 L111.890664,5.64133317 L111.890664,1.6386666 L110.922664,1.6386666 L110.922664,5.64133317 Z M111.395997,7.55066645 C111.795997,7.55066645 112.023997,7.42399979 112.023997,6.89066647 C112.023997,6.35599982 111.795997,6.22933315 111.395997,6.22933315 C110.995997,6.22933315 110.769331,6.35599982 110.769331,6.89066647 C110.769331,7.42399979 110.995997,7.55066645 111.395997,7.55066645 L111.395997,7.55066645 Z" id="path66" fill="#fff"></path>
                <g id="g68" transform="translate(114.128264, 0.675200)" fill="#fff">
                    <path d="M0,5.3333332 L0.967999976,5.3333332 L0.967999976,5.06666654 C1.1813333,5.23466654 1.49466663,5.37999987 1.96266662,5.37999987 C2.80799993,5.37999987 3.49599991,4.88666654 3.49599991,3.8719999 L3.49599991,0.963999976 L2.52799994,0.963999976 L2.52799994,3.84666657 C2.52799994,4.35999989 2.20799994,4.57333322 1.87466662,4.57333322 L1.70133329,4.57333322 C1.2813333,4.57333322 0.967999976,4.25866656 0.967999976,3.96666657 L0.967999976,0.963999976 L0,0.963999976 L0,5.3333332 Z" id="path70"></path>
                </g>
                <g id="g72" transform="translate(118.535864, 0.008533)" fill="#fff">
                    <path d="M2.6666666,5.3333332 C2.34666661,5.3333332 2.01999995,5.05999987 2.01999995,4.58533322 L2.01999995,4.00533323 C2.01999995,3.51199991 2.25999994,3.29866658 2.7346666,3.29866658 L3.03999992,3.29866658 C3.22133325,3.29866658 3.70133324,3.36399992 3.70133324,3.74533324 L3.70133324,4.73999988 C3.70133324,5.1933332 3.25999992,5.3333332 3.02133326,5.3333332 L2.6666666,5.3333332 Z M4.66933322,2.44399994 C4.66933322,1.64933329 4.06133323,1.00266664 3.13466659,1.00266664 L2.6466666,1.00266664 C1.87199995,1.00266664 1.2053333,1.42266663 1.2053333,2.21599994 L2.17333328,2.21599994 C2.17333328,1.94266662 2.29999994,1.81599995 2.67999993,1.81599995 L3.10666659,1.81599995 C3.40799991,1.81599995 3.70133324,1.99599995 3.70133324,2.39066661 L3.70133324,2.6906666 C3.45466658,2.50399994 3.08666659,2.47599994 2.92666659,2.47599994 L2.6466666,2.47599994 C1.59199996,2.47599994 1.05199997,3.09066659 1.05199997,4.02533323 L1.05199997,4.57333322 C1.05199997,5.47999986 1.63866663,6.13999985 2.6466666,6.13999985 L2.83333326,6.13999985 C3.12799992,6.13999985 3.52799991,6.02799985 3.70133324,5.83999985 L3.70133324,5.99999985 L4.66933322,5.99999985 L4.66933322,2.44399994 Z" id="path74"></path>
                </g>
                <g id="g76" transform="translate(128.543597, 1.390000)" fill="#fff">
                    <path d="M2.6666666,5.3333332 C2.37999994,5.3333332 2.09333328,5.2733332 2.09333328,4.79999988 C2.09333328,4.65866655 2.32666661,4.26533323 2.57333327,3.97733323 C2.89333326,4.21199989 3.19999992,4.51999989 3.19999992,4.79999988 C3.19999992,5.22666654 2.95466659,5.3333332 2.6666666,5.3333332 L2.6666666,5.3333332 Z M2.31333328,2.85733326 C1.81866662,2.42933327 1.55999996,2.17733328 1.55999996,1.75599996 C1.55999996,1.2013333 1.81866662,0.955999976 2.44666661,0.955999976 C2.75333326,0.955999976 3.17466659,1.04799997 3.46799991,1.31599997 L2.31333328,2.85733326 Z M4.40266656,0.161333329 L4.03466657,0.641333317 C3.57466658,0.287999993 3.01466659,0.147999996 2.41999994,0.147999996 C1.27866663,0.147999996 0.611999985,0.675999983 0.611999985,1.78266662 C0.611999985,2.47599994 1.03866664,2.95733326 1.76533329,3.52533325 C1.49199996,3.8639999 1.13333331,4.43866656 1.13333331,4.79999988 C1.13333331,5.97333318 1.95333328,6.13466651 2.7346666,6.13466651 C3.46799991,6.13466651 4.1479999,5.81333319 4.1359999,4.79999988 C4.12933323,4.22533323 3.71466657,3.73866657 3.13466659,3.32399992 L4.1679999,1.90266662 C4.30799989,2.05599995 4.48133322,2.32933328 4.50933322,2.52933327 L5.51066653,2.52933327 C5.37599987,1.91599995 5.02266654,1.42266663 4.76266655,1.19466664 L5.57066653,0.161333329 L4.40266656,0.161333329 Z" id="path78"></path>
                </g>
                <polygon id="path80" fill="#fff" points="140.215996 7.41066646 141.183996 7.41066646 141.183996 1.6386666 140.215996 1.6386666"></polygon>
                <g id="g82" transform="translate(143.414663, 0.675200)" fill="#fff">
                    <path d="M0,5.3333332 L0.967999976,5.3333332 L0.967999976,5.06666654 C1.1813333,5.23466654 1.49466663,5.37999987 1.96266662,5.37999987 C2.80799993,5.37999987 3.49599991,4.88666654 3.49599991,3.8719999 L3.49599991,0.963999976 L2.52799994,0.963999976 L2.52799994,3.84666657 C2.52799994,4.35999989 2.20799994,4.57333322 1.87466662,4.57333322 L1.70133329,4.57333322 C1.2813333,4.57333322 0.967999976,4.25866656 0.967999976,3.96666657 L0.967999976,0.963999976 L0,0.963999976 L0,5.3333332 Z" id="path84"></path>
                </g>
                <g id="g86" transform="translate(148.136130, 0.675200)" fill="#fff">
                    <path d="M1.3333333,5.3333332 L1.3333333,6.73599983 L2.30133328,6.73599983 L2.30133328,5.3333332 L3.48133325,5.3333332 L3.48133325,4.52666655 L2.30133328,4.52666655 L2.30133328,2.32399994 C2.30133328,1.84399995 2.38666661,1.71733329 2.69999993,1.72399996 C2.91466659,1.73066662 3.22133325,1.76266662 3.54133324,1.91066662 L3.54133324,1.09599997 C3.22799992,0.955999976 2.8346666,0.902666644 2.60799993,0.889333311 C1.85333329,0.835999979 1.3333333,1.2493333 1.3333333,2.22399994 L1.3333333,4.52666655 L0.505333321,4.52666655 L0.505333321,5.3333332 L1.3333333,5.3333332 Z" id="path88"></path>
                </g>
                <g id="g90" transform="translate(153.397729, 1.406933)" fill="#fff">
                    <path d="M2.6666666,2.6666666 L2.6666666,2.99333326 C2.6666666,3.63466658 2.33333328,3.9279999 1.96666662,3.9279999 L1.72533329,3.9279999 C1.35866663,3.9279999 1.03066664,3.64799991 1.03066664,2.97999993 L1.03066664,2.6666666 L2.6666666,2.6666666 Z M3.63466658,2.41866661 C3.63466658,2.07999995 3.46799991,1.85333329 3.06666659,1.85333329 L1.03066664,1.85333329 L1.03066664,1.75199996 C1.03066664,1.25866664 1.3853333,0.985333309 1.73199996,0.985333309 L2.00533328,0.985333309 C2.35333327,0.985333309 2.5466666,1.17866664 2.6066666,1.37199997 L3.58666658,1.37199997 C3.43999991,0.643999984 2.81999993,0.163999996 2.05199995,0.163999996 L1.73866662,0.163999996 C0.845333312,0.163999996 0.0639999984,0.718666649 0.0639999984,1.85333329 L0.0639999984,3.06799992 C0.0639999984,4.02133323 0.638666651,4.74266655 1.71199996,4.74266655 L1.95866662,4.74266655 C3.06666659,4.74266655 3.63466658,3.9879999 3.63466658,3.03333326 L3.63466658,2.41866661 Z" id="path92"></path>
                </g>
                <path d="M159.162663,7.41066646 L160.130663,7.41066646 L160.130663,1.6386666 L159.162663,1.6386666 L159.162663,7.41066646 Z M162.461329,7.41066646 L162.461329,7.41066646 L163.429329,7.41066646 L163.429329,1.6386666 L162.461329,1.6386666 L162.461329,7.41066646 Z M165.761329,5.64133317 L166.729329,5.64133317 L166.729329,1.6386666 L165.761329,1.6386666 L165.761329,5.64133317 Z M166.234662,7.55066645 C166.634662,7.55066645 166.862662,7.42399979 166.862662,6.89066647 C166.862662,6.35599982 166.634662,6.22933315 166.234662,6.22933315 C165.833329,6.22933315 165.607996,6.35599982 165.607996,6.89066647 C165.607996,7.42399979 165.833329,7.55066645 166.234662,7.55066645 L166.234662,7.55066645 Z" id="path94" fill="#fff"></path>
                <g id="g100" transform="translate(167.815729, 0.008533)" fill="#fff">
                    <path d="M2.6666666,5.3333332 C2.34666661,5.3333332 2.01999995,5.05999987 2.01999995,4.58533322 L2.01999995,4.00533323 C2.01999995,3.51199991 2.25999994,3.29866658 2.73333327,3.29866658 L3.03999992,3.29866658 C3.22133325,3.29866658 3.70133324,3.36399992 3.70133324,3.74533324 L3.70133324,4.73999988 C3.70133324,5.1933332 3.25999992,5.3333332 3.02133326,5.3333332 L2.6666666,5.3333332 Z M4.66933322,2.44399994 C4.66933322,1.64933329 4.06133323,1.00266664 3.13466659,1.00266664 L2.6466666,1.00266664 C1.87199995,1.00266664 1.2053333,1.42266663 1.2053333,2.21599994 L2.17333328,2.21599994 C2.17333328,1.94266662 2.29999994,1.81599995 2.68133327,1.81599995 L3.10799992,1.81599995 C3.40799991,1.81599995 3.70133324,1.99599995 3.70133324,2.39066661 L3.70133324,2.6906666 C3.45466658,2.50399994 3.08666659,2.47599994 2.92666659,2.47599994 L2.6466666,2.47599994 C1.59199996,2.47599994 1.05199997,3.09066659 1.05199997,4.02533323 L1.05199997,4.57333322 C1.05199997,5.47999986 1.63866663,6.13999985 2.6466666,6.13999985 L2.83333326,6.13999985 C3.12799992,6.13999985 3.52799991,6.02799985 3.70133324,5.83999985 L3.70133324,5.99999985 L4.66933322,5.99999985 L4.66933322,2.44399994 Z" id="path102"></path>
                </g>
                <g id="g104" transform="translate(174.384796, 1.406933)" fill="#fff">
                    <path d="M2.6666666,2.6666666 L2.6666666,2.99333326 C2.6666666,3.63466658 2.33333328,3.9279999 1.96666662,3.9279999 L1.72533329,3.9279999 C1.35866663,3.9279999 1.03066664,3.64799991 1.03066664,2.97999993 L1.03066664,2.6666666 L2.6666666,2.6666666 Z M3.63466658,2.41866661 C3.63466658,2.07999995 3.46799991,1.85333329 3.06666659,1.85333329 L1.03066664,1.85333329 L1.03066664,1.75199996 C1.03066664,1.25866664 1.3853333,0.985333309 1.73199996,0.985333309 L2.00533328,0.985333309 C2.35333327,0.985333309 2.5466666,1.17866664 2.6066666,1.37199997 L3.58666658,1.37199997 C3.43999991,0.643999984 2.81999993,0.163999996 2.05199995,0.163999996 L1.73866662,0.163999996 C0.845333312,0.163999996 0.0639999984,0.718666649 0.0639999984,1.85333329 L0.0639999984,3.06799992 C0.0639999984,4.02133323 0.638666651,4.74266655 1.71199996,4.74266655 L1.95866662,4.74266655 C3.06666659,4.74266655 3.63466658,3.9879999 3.63466658,3.03333326 L3.63466658,2.41866661 Z" id="path106"></path>
                </g>
                <g id="g108" transform="translate(179.981062, 0.675200)" fill="#fff">
                    <path d="M0,5.3333332 L0.967999976,5.3333332 L0.967999976,5.06666654 C1.1813333,5.23466654 1.49466663,5.37999987 1.96266662,5.37999987 C2.80933326,5.37999987 3.49599991,4.88666654 3.49599991,3.8719999 L3.49599991,0.963999976 L2.52799994,0.963999976 L2.52799994,3.84666657 C2.52799994,4.35999989 2.20799994,4.57333322 1.87466662,4.57333322 L1.70133329,4.57333322 C1.2813333,4.57333322 0.967999976,4.25866656 0.967999976,3.96666657 L0.967999976,0.963999976 L0,0.963999976 L0,5.3333332 Z" id="path110"></path>
                </g>
                <g id="g112" transform="translate(184.964129, 0.399067)" fill="#fff">
                    <path d="M3.9999999,2.6666666 C3.9999999,1.67999996 3.31866658,1.17199997 2.40533327,1.17199997 L2.08399995,1.17199997 C1.20399997,1.17199997 0.475999988,1.67999996 0.475999988,2.7666666 L0.475999988,4.1479999 C0.475999988,5.23599987 1.19599997,5.75066652 2.08399995,5.75066652 L2.37066661,5.75066652 C3.29333325,5.75066652 3.9719999,5.25599987 3.9719999,4.26133323 L3.00533326,4.26133323 C3.00533326,4.77599988 2.6986666,4.93599988 2.37066661,4.93599988 L2.08399995,4.93599988 C1.77066662,4.93599988 1.44399996,4.69466655 1.44399996,4.15466656 L1.44399996,2.75999993 C1.44399996,2.21333328 1.77066662,1.99333328 2.08399995,1.99333328 L2.40533327,1.99333328 C2.73199993,1.99333328 3.03199992,2.19333328 3.03199992,2.6666666 L3.9999999,2.6666666 Z" id="path114"></path>
                </g>
                <g id="g116" transform="translate(190.697195, 1.406933)" fill="#fff">
                    <path d="M2.6666666,2.6666666 L2.6666666,2.99333326 C2.6666666,3.63466658 2.33333328,3.9279999 1.96666662,3.9279999 L1.72533329,3.9279999 C1.35866663,3.9279999 1.03066664,3.64799991 1.03066664,2.97999993 L1.03066664,2.6666666 L2.6666666,2.6666666 Z M3.63466658,2.41866661 C3.63466658,2.07999995 3.46799991,1.85333329 3.06666659,1.85333329 L1.03066664,1.85333329 L1.03066664,1.75199996 C1.03066664,1.25866664 1.3853333,0.985333309 1.73199996,0.985333309 L2.00533328,0.985333309 C2.35333327,0.985333309 2.5466666,1.17866664 2.6066666,1.37199997 L3.58666658,1.37199997 C3.43999991,0.643999984 2.81999993,0.163999996 2.05199995,0.163999996 L1.73866662,0.163999996 C0.845333312,0.163999996 0.0639999984,0.718666649 0.0639999984,1.85333329 L0.0639999984,3.06799992 C0.0639999984,4.02133323 0.638666651,4.74266655 1.71199996,4.74266655 L1.95866662,4.74266655 C3.06666659,4.74266655 3.63466658,3.9879999 3.63466658,3.03333326 L3.63466658,2.41866661 Z" id="path118"></path>
                </g>
                <g id="g120" transform="translate(41.338266, 9.240666)" fill="#fff">
                    <path d="M3.9999999,29.3333326 C5.19466654,29.3053326 6.07466651,29.0026659 6.64133317,28.426666 C7.20933315,27.8533326 9.88133309,25.1853327 14.6559996,20.4239995 C19.3733328,25.1399994 22.0266661,27.8053326 22.6146661,28.4173326 C23.2053328,29.0279993 24.0826661,29.3333326 25.246666,29.3333326 C27.5893326,29.3186659 28.7693326,28.146666 28.7839993,25.818666 L28.8053326,4.59466655 C28.8053326,2.23599994 27.6119993,1.04266664 25.2239994,1.01333331 C22.8946661,1.02799997 21.7093328,2.22133328 21.6653328,4.59466655 L21.6653328,17.0853329 C19.2919995,14.653333 17.8146662,13.1386663 17.2319996,12.5426664 C16.6493329,11.945333 15.7773329,11.6466664 14.6119996,11.6466664 C13.477333,11.6466664 12.6079997,11.953333 12.0026664,12.565333 C11.3986664,13.1759997 9.91733309,14.661333 7.55999981,17.0199996 L7.55999981,4.59466655 C7.54533314,2.25066661 6.36533317,1.07199997 4.02266657,1.05733331 C1.64933329,1.04266664 0.470666655,2.22133328 0.485333321,4.59466655 L0.485333321,25.818666 C0.485333321,28.1613326 1.65733329,29.3333326 3.9999999,29.3333326" id="path122"></path>
                </g>
                <g id="g124" transform="translate(72.842798, 10.284933)" fill="#fff">
                    <path d="M3.9999999,28.3333326 C6.37333317,28.2746659 7.56666648,27.1173326 7.58266648,24.862666 L7.55999981,7.10933313 L21.6199995,7.10933313 C23.9933327,7.09466646 25.1799994,5.90133316 25.1799994,3.52799989 C25.1799994,1.21333328 24.0159994,0.0426666406 21.6879995,0.013333308 L3.9999999,0.013333308 C1.65733329,0.013333308 0.477333321,1.15466661 0.462666655,3.43999989 L0.462666655,24.7519994 C0.477333321,27.094666 1.65733329,28.2893326 3.9999999,28.3333326" id="path126"></path>
                </g>
                <g id="g128" transform="translate(100.256264, 9.218533)" fill="#fff">
                    <path d="M3.9999999,29.3333326 C6.35866651,29.3186659 7.55999981,28.154666 7.60399981,25.8413327 L7.60399981,4.57333322 C7.57466648,2.22933328 6.38799984,1.03466664 4.0439999,0.990666642 C1.68666662,1.04933331 0.507999987,2.24399994 0.507999987,4.57333322 L0.507999987,25.818666 C0.491999988,28.1613326 1.65599996,29.3333326 3.9999999,29.3333326" id="path130"></path>
                </g>
                <g id="g132" transform="translate(110.537464, 9.284933)" fill="#fff">
                    <path d="M3.9999999,29.3333326 C6.37333317,29.2746659 7.56666648,28.1173326 7.58266648,25.862666 L7.55999981,8.10933313 L21.6213328,8.10933313 C23.9933327,8.09466646 25.1799994,6.90133316 25.1799994,4.52799989 C25.1799994,2.21333328 24.0159994,1.04266664 21.6879995,1.01333331 L3.9999999,1.01333331 C1.65599996,1.01333331 0.477333321,2.15466661 0.463999988,4.43999989 L0.463999988,25.7519994 C0.477333321,28.094666 1.65599996,29.2893326 3.9999999,29.3333326" id="path134"></path>
                </g>
                <g id="g136" transform="translate(137.428130, 9.394400)" fill="#fff">
                    <path d="M19.9999995,7.9999998 L15.1359996,17.9719996 L10.2719997,7.9999998 L19.9999995,7.9999998 Z M4.56799989,0.881333311 C3.9639999,0.881333311 3.38133325,1.03199997 2.82133326,1.33466663 C2.25999994,1.63733329 1.82266662,2.07199995 1.50666663,2.6386666 C1.1893333,3.20533325 1.03066664,3.79999991 1.03066664,4.41866656 C1.03066664,5.03733321 2.79199993,8.88799978 6.31466651,15.9706663 C9.83733309,23.0519994 11.7519997,26.8733327 12.0626664,27.4333326 C12.3719997,27.9933326 12.809333,28.4319993 13.377333,28.7493326 C13.945333,29.0666659 14.5306663,29.2239993 15.1359996,29.2239993 C15.7546663,29.2239993 16.3439996,29.0666659 16.9053329,28.7493326 C17.4653329,28.4319993 17.8999996,27.9933326 18.2079995,27.4333326 C18.5186662,26.8733327 20.4453328,23.0519994 23.9893327,15.9706663 C27.534666,8.88799978 29.3066659,5.03733321 29.3066659,4.41866656 C29.3066659,3.79999991 29.1479993,3.20533325 28.8319993,2.6386666 C28.514666,2.07199995 28.0733326,1.63733329 27.5053326,1.33466663 C26.9373327,1.03199997 26.3599993,0.881333311 25.7693327,0.881333311 L4.56799989,0.881333311 Z" id="path138"></path>
                </g>
                <g id="g140" transform="translate(169.037462, 10.144400)" fill="#fff">
                    <path d="M7.9999998,21.3333328 L7.9999998,7.24933315 L16.7773329,7.24933315 C17.9706662,7.24933315 18.5679995,7.8319998 18.5679995,8.99733311 C18.5679995,10.1919997 17.9853329,10.7879997 16.8213329,10.7879997 L15.0746663,10.8093331 C12.6866663,10.8093331 11.4999997,12.0479997 11.5159997,14.5239996 C11.5159997,16.7639996 12.6946663,17.8693329 15.0519996,17.8399996 L16.8213329,17.8173329 C17.9999996,17.8173329 18.5746662,18.4666662 18.5453329,19.7639995 C18.5746662,20.8093328 17.9999996,21.3333328 16.8213329,21.3333328 L7.9999998,21.3333328 Z M4.43999989,28.4293326 L16.8213329,28.4293326 C19.1639995,28.4293326 21.2359995,27.5453326 23.0333328,25.7773327 C24.7879994,24.0373327 25.6639994,22.0119994 25.6639994,19.6973328 L25.6639994,19.5866662 C25.634666,17.2133329 25.0239994,15.4679996 23.8293327,14.3479996 C25.0679994,13.1239997 25.686666,11.3839997 25.686666,9.13066644 L25.686666,8.99733311 C25.6559994,6.66799983 24.7533327,4.61199988 22.9773328,2.82799993 C21.2013328,1.04533331 19.2226662,0.15333333 17.0413329,0.15333333 L4.35199989,0.15333333 C2.05199995,0.15333333 0.903999977,1.33199997 0.903999977,3.69199991 L0.903999977,24.8933327 C0.903999977,27.2359993 2.08266661,28.4159993 4.43999989,28.4293326 L4.43999989,28.4293326 Z" id="path142"></path>
                </g>
                <g id="g144" transform="translate(10.936933, 28.331466)" fill="#fff">
                    <path d="M1.3333333,3.9999999 C1.30266663,3.72533324 1.21199997,3.46933325 1.07466664,3.24399992 L6.84533316,1.27866663 C6.87466649,1.55466663 6.96666649,1.80933329 7.10399982,2.03466662 L1.3333333,3.9999999 Z" id="path146"></path>
                </g>
                <g id="g148" transform="translate(10.823733, 33.197866)" fill="#fff">
                    <path d="M1.3333333,0 L5.94933318,3.06399992 C5.75733319,3.24933325 5.60533319,3.47599991 5.50799986,3.72933324 L0.891999978,0.665333317 C1.08399997,0.479999988 1.23599997,0.253333327 1.3333333,0" id="path150"></path>
                </g>
                <g id="g152" transform="translate(18.899066, 35.144666)" fill="#fff">
                    <path d="M5.3333332,0 C5.35999987,0.27466666 5.4493332,0.531999987 5.58399986,0.758666648 L0.990666642,2.26399994 C0.963999976,1.98799995 0.874666645,1.73199996 0.739999982,1.5053333 L5.3333332,0 Z" id="path154"></path>
                </g>
                <g id="g156" transform="translate(20.442933, 30.089199)" fill="#fff">
                    <path d="M3.9999999,3.9999999 L0.277333326,0.79599998 C0.491999988,0.634666651 0.671999983,0.429333323 0.79999998,0.191999995 L4.52266655,3.39599992 C4.30799989,3.55733324 4.1279999,3.76266657 3.9999999,3.9999999" id="path158"></path>
                </g>
                <g id="g160" transform="translate(26.754399, 29.249333)" fill="#fff">
                    <path d="M0,3.9999999 L2.46133327,0.390666657 C2.64399993,0.585333319 2.86799993,0.739999982 3.11999992,0.839999979 L0.65866665,4.45066656 C0.475999988,4.25599989 0.251999994,4.10133323 0,3.9999999" id="path162"></path>
                </g>
                <g id="g164" transform="translate(27.495066, 22.022533)" fill="#fff">
                    <path d="M0,1.3333333 C0.263999993,1.26266664 0.505333321,1.13599997 0.707999982,0.965333309 L2.5866666,4.57333322 C2.32266661,4.64399988 2.08133328,4.76933321 1.87866662,4.93999988 L0,1.3333333 Z" id="path166"></path>
                </g>
                <g id="g168" transform="translate(19.404133, 21.823866)" fill="#fff">
                    <path d="M6.6666665,1.3333333 L1.73999996,6.54799984 C1.58933329,6.32533318 1.3893333,6.13999985 1.15866664,6.00133318 L6.08533318,0.786666647 C6.23599984,1.00933331 6.43599984,1.19466664 6.6666665,1.3333333" id="path170"></path>
                </g>
                <g id="g172" transform="translate(16.719733, 30.410933)" fill="#fff">
                    <path d="M1.3333333,5.3333332 C1.31466663,5.3333332 1.2973333,5.33599987 1.27866663,5.33599987 L2.16666661,0.691999983 C2.39066661,0.789333314 2.63733327,0.842666646 2.89733326,0.842666646 C2.91466659,0.842666646 2.93199993,0.841333312 2.95066659,0.839999979 L2.06399995,5.48399986 C1.83999995,5.38799987 1.59333329,5.3333332 1.3333333,5.3333332" id="path174"></path>
                </g>
                <g id="g176" transform="translate(15.386400, 35.436399)" fill="#fff">
                    <path d="M2.6666666,3.9999999 C1.64666663,3.9999999 0.81999998,3.17333325 0.81999998,2.15333328 C0.81999998,1.91999995 0.865333312,1.69599996 0.94533331,1.49066663 C1.04266664,1.2373333 1.19466664,1.01066664 1.38666663,0.825333313 C1.70666662,0.51733332 2.13733328,0.323999992 2.61199993,0.310666659 C2.6306666,0.310666659 2.64799993,0.307999992 2.6666666,0.307999992 C2.92666659,0.307999992 3.17333325,0.361333324 3.39733325,0.458666655 C3.75599991,0.613333318 4.05466657,0.879999978 4.25333323,1.2133333 C4.38799989,1.43999996 4.47599989,1.69599996 4.50399989,1.97199995 C4.50933322,2.03199995 4.51333322,2.09199995 4.51333322,2.15333328 C4.51333322,3.17333325 3.68666657,3.9999999 2.6666666,3.9999999 M2.6666666,3.20133325 C3.24399992,3.20133325 3.71466657,2.73199993 3.71466657,2.15333328 C3.71466657,2.12133328 3.71333324,2.08666661 3.70933324,2.04933328 C3.69466657,1.89999995 3.64666658,1.75599996 3.56666658,1.62133329 C3.45333325,1.43066663 3.28133325,1.2773333 3.08133326,1.19199997 C2.95466659,1.1373333 2.81999993,1.10799997 2.6826666,1.10666664 C2.6666666,1.10666664 2.6506666,1.10799997 2.63599993,1.10799997 C2.37466661,1.11599997 2.12799995,1.21999997 1.94133328,1.39999997 C1.83066662,1.50666663 1.74533329,1.63333329 1.69066662,1.77733329 C1.64266663,1.89999995 1.61866663,2.02666662 1.61866663,2.15333328 C1.61866663,2.73199993 2.08933328,3.20133325 2.6666666,3.20133325" id="path178"></path>
                </g>
                <g id="g180" transform="translate(7.769333, 30.380533)" fill="#fff">
                    <path d="M2.6666666,3.9999999 C1.64666663,3.9999999 0.81999998,3.17333325 0.81999998,2.15333328 C0.81999998,1.13466664 1.64666663,0.307999992 2.6666666,0.307999992 C3.33466658,0.307999992 3.91866657,0.663999983 4.24266656,1.19599997 C4.37999989,1.41999996 4.47066655,1.67599996 4.50133322,1.95066662 C4.50799989,2.01733328 4.51333322,2.08533328 4.51333322,2.15333328 C4.51333322,2.38799994 4.46799989,2.6106666 4.38799989,2.81733326 C4.29066656,3.07066659 4.13866656,3.29733325 3.94666657,3.48266658 C3.61466658,3.80266657 3.16399992,3.9999999 2.6666666,3.9999999 M2.6666666,3.20133325 C2.93866659,3.20133325 3.19599992,3.09733326 3.39199992,2.90799993 C3.50266658,2.80133326 3.58799991,2.67333327 3.64266658,2.5306666 C3.69066657,2.40666661 3.71466657,2.28133328 3.71466657,2.15333328 C3.71466657,2.11866661 3.71199991,2.07999995 3.70799991,2.03733328 C3.69066657,1.88799995 3.64133324,1.74399996 3.55999991,1.61066663 C3.36799992,1.29466663 3.03333326,1.10666664 2.6666666,1.10666664 C2.08933328,1.10666664 1.61866663,1.57599996 1.61866663,2.15333328 C1.61866663,2.73199993 2.08933328,3.20133325 2.6666666,3.20133325" id="path182"></path>
                </g>
                <g id="g184" transform="translate(16.949733, 27.253866)" fill="#fff">
                    <path d="M2.6666666,3.9999999 C2.40666661,3.9999999 2.15999995,3.94533323 1.93599995,3.84933324 C1.58399996,3.69733324 1.2893333,3.43733325 1.09066664,3.11199992 C0.95333331,2.88666659 0.862666645,2.63199993 0.831999979,2.35733327 C0.825333313,2.29066661 0.81999998,2.22266661 0.81999998,2.15333328 C0.81999998,1.13466664 1.64666663,0.307999992 2.6666666,0.307999992 C3.01333326,0.307999992 3.33599992,0.405333323 3.61333324,0.570666652 C3.8439999,0.709333316 4.0439999,0.895999978 4.19466656,1.11733331 C4.39466656,1.4133333 4.51333322,1.76933329 4.51333322,2.15333328 C4.51333322,2.46933327 4.43333322,2.7666666 4.29333323,3.02666659 C4.16533323,3.26533325 3.98533323,3.47066658 3.77066657,3.63066658 C3.47599991,3.8519999 3.11466659,3.98533323 2.72133327,3.99733323 C2.7026666,3.99733323 2.68533327,3.9999999 2.6666666,3.9999999 M2.6506666,3.20133325 C2.6666666,3.19999992 2.6826666,3.19999992 2.69733327,3.19866659 C2.91333326,3.19333325 3.11999992,3.12133326 3.29199992,2.99199993 C3.41599991,2.89866659 3.51999991,2.77999993 3.59066658,2.64933327 C3.67199991,2.49599994 3.71466657,2.32933328 3.71466657,2.15333328 C3.71466657,1.94266662 3.65199991,1.73999996 3.53466658,1.56666663 C3.45066658,1.44266663 3.33599992,1.33599997 3.20266659,1.25599997 C3.03733326,1.15599997 2.85733326,1.10666664 2.6666666,1.10666664 C2.08933328,1.10666664 1.61866663,1.57599996 1.61866663,2.15333328 C1.61866663,2.18933328 1.62133329,2.22666661 1.62533329,2.27066661 C1.64266663,2.41999994 1.69199996,2.56399994 1.77199996,2.69733327 C1.88799995,2.88533326 2.05333328,3.03066659 2.25199994,3.11599992 C2.37866661,3.17066659 2.51333327,3.19999992 2.6506666,3.20133325" id="path186"></path>
                </g>
                <g id="g188" transform="translate(23.402666, 32.808666)" fill="#fff">
                    <path d="M2.6666666,3.9999999 C1.99066662,3.9999999 1.4013333,3.63599991 1.07999997,3.09466659 C0.94533331,2.86799993 0.857333312,2.6106666 0.829333313,2.33599994 C0.823999979,2.27599994 0.81999998,2.21599994 0.81999998,2.15333328 C0.81999998,1.83733329 0.899999978,1.53999996 1.03999997,1.27999997 C1.16799997,1.04266664 1.34799997,0.837333312 1.56266663,0.677333316 C1.87066662,0.446666656 2.25199994,0.307999992 2.6666666,0.307999992 C2.90933326,0.307999992 3.13999992,0.355999991 3.35199992,0.441333322 C3.60399991,0.54133332 3.8279999,0.695999983 4.01066657,0.890666644 C4.32133323,1.2213333 4.51333322,1.66533329 4.51333322,2.15333328 C4.51333322,3.17333325 3.68666657,3.9999999 2.6666666,3.9999999 M2.6666666,3.20133325 C3.24399992,3.20133325 3.71466657,2.73199993 3.71466657,2.15333328 C3.71466657,1.88799995 3.61333324,1.63333329 3.42933325,1.4373333 C3.32266658,1.3253333 3.19733325,1.23866664 3.05466659,1.1813333 C2.92933326,1.13199997 2.7986666,1.10666664 2.6666666,1.10666664 C2.44133327,1.10666664 2.22399994,1.17866664 2.04133328,1.31599997 C1.91733329,1.4093333 1.81333329,1.52799996 1.74266662,1.65866663 C1.66133329,1.81199995 1.61866663,1.97866662 1.61866663,2.15333328 C1.61866663,2.18666661 1.62133329,2.22133328 1.62399996,2.25866661 C1.63866663,2.40799994 1.68666662,2.55199994 1.76666662,2.6866666 C1.95733328,3.00933326 2.29466661,3.20133325 2.6666666,3.20133325" id="path190"></path>
                </g>
                <g id="g192" transform="translate(27.893066, 26.222666)" fill="#fff">
                    <path d="M2.6666666,3.9999999 C2.42399994,3.9999999 2.19333328,3.9519999 1.98133328,3.86666657 C1.72933329,3.76666657 1.5053333,3.61199991 1.32266663,3.41733325 C1.01199997,3.08666659 0.81999998,2.6426666 0.81999998,2.15333328 C0.81999998,1.58666663 1.07733331,1.07866664 1.47999996,0.739999981 C1.68399996,0.569333319 1.92533329,0.442666656 2.18933328,0.371999991 C2.34133327,0.331999992 2.50133327,0.307999992 2.6666666,0.307999992 C3.68666657,0.307999992 4.51333322,1.13466664 4.51333322,2.15333328 C4.51333322,3.17333325 3.68666657,3.9999999 2.6666666,3.9999999 M2.6666666,3.20133325 C3.24399992,3.20133325 3.71466657,2.73199993 3.71466657,2.15333328 C3.71466657,1.57599996 3.24399992,1.10666664 2.6666666,1.10666664 C2.5786666,1.10666664 2.48933327,1.11866664 2.39599994,1.14399997 C2.24533328,1.18399997 2.11066661,1.2533333 1.99333328,1.35199997 C1.75599996,1.55199996 1.61866663,1.84399995 1.61866663,2.15333328 C1.61866663,2.41999994 1.71999996,2.6746666 1.90399995,2.86933326 C2.01066662,2.98266659 2.13599995,3.06933326 2.27866661,3.12666659 C2.40399994,3.17599992 2.5346666,3.20133325 2.6666666,3.20133325" id="path194"></path>
                </g>
                <g id="g196" transform="translate(24.350666, 19.420533)" fill="#fff">
                    <path d="M2.6666666,3.9999999 C2.31999994,3.9999999 1.99733328,3.90266657 1.71999996,3.73733324 C1.4893333,3.59866658 1.2893333,3.41199991 1.13866664,3.18933325 C0.938666643,2.89466659 0.81999998,2.5386666 0.81999998,2.15333328 C0.81999998,1.13466664 1.64666663,0.307999992 2.6666666,0.307999992 C3.68666657,0.307999992 4.51333322,1.13466664 4.51333322,2.15333328 C4.51333322,2.72133327 4.25599989,3.22933325 3.85333324,3.56799991 C3.64933324,3.73866657 3.40799991,3.8639999 3.14399992,3.93466657 C2.99199993,3.9759999 2.83199993,3.9999999 2.6666666,3.9999999 M2.6666666,3.20133325 C2.7546666,3.20133325 2.84399993,3.18933325 2.93733326,3.16399992 C3.08799992,3.12399992 3.22266659,3.05466659 3.33999992,2.95599993 C3.57733324,2.75599993 3.71466657,2.46399994 3.71466657,2.15333328 C3.71466657,1.57599996 3.24399992,1.10666664 2.6666666,1.10666664 C2.08933328,1.10666664 1.61866663,1.57599996 1.61866663,2.15333328 C1.61866663,2.36533327 1.68133329,2.56799994 1.79866662,2.74133326 C1.88266662,2.86533326 1.99733328,2.97199993 2.13066661,3.05199992 C2.29599994,3.15199992 2.47599994,3.20133325 2.6666666,3.20133325" id="path198"></path>
                </g>
                <g id="g200" transform="translate(0.192267, 1.060800)" fill="#fff">
                    <path d="M29.3333326,13.333333 C27.850666,11.4226664 27.3013327,9.22399977 27.4279993,6.8306665 C27.506666,5.32266653 27.8679993,3.8759999 28.3639993,2.41199994 L13.249333,2.41199994 C13.249333,3.03733326 13.3106663,3.64933324 13.237333,4.24399989 C13.081333,5.49999986 12.073333,6.37466651 10.8213331,6.39466651 C9.92799975,6.40799984 9.03599977,6.37733317 8.14266646,6.39466651 C8.14266646,6.39466651 5.50266653,6.29599984 5.50266653,9.4413331 C5.50266653,11.3866664 5.50266653,13.3319997 5.49999986,15.277333 C5.49999986,15.4919996 5.48266653,15.7133329 5.42666653,15.9186663 C5.29066653,16.4173329 4.83199988,16.7586662 4.31466656,16.7639996 C3.71999991,16.7706662 3.12399992,16.7626662 2.52799994,16.7666662 C2.10933328,16.7706662 2.06533328,16.8386662 2.24399994,17.2186662 C3.13866659,19.1106662 4.01333323,21.0119995 4.94133321,22.8879994 C5.48666653,23.9906661 5.65999986,25.1053327 5.54799986,26.3373327 C5.09866654,31.2626659 7.51599981,35.8306658 11.9346664,38.1146657 C14.8439996,39.6186657 17.9533329,40.1386657 21.2053328,39.8573323 C23.8439994,39.6293323 26.3173327,38.8746657 28.5839993,37.4973324 C31.9653325,35.4426658 34.0386658,32.4759992 34.8573325,28.5919993 C35.9599991,23.3506661 34.5533325,18.8719995 30.8973326,15.0346663 C30.3666659,14.477333 29.8039993,13.9399997 29.3333326,13.333333 M35.6373324,31.3199992 C34.5186658,34.4479991 32.4413325,36.8493324 29.6359993,38.6013324 C26.018666,40.8586656 22.0613328,41.743999 17.8213329,41.379999 C15.4399996,41.1773323 13.177333,40.5493323 11.0626664,39.4226657 C6.15733318,36.8106657 3.41866658,31.6999992 3.96933323,26.1999993 C4.06666657,25.2253327 3.9439999,24.3066661 3.49866658,23.4079994 C2.5746666,21.5466661 1.70533329,19.6573328 0.81599998,17.7786662 C0.14933333,16.3719996 0.965333309,15.0906663 2.5306666,15.0839996 C2.97466659,15.081333 3.41866658,15.0839996 3.9199999,15.0839996 L3.9199999,14.5386663 L3.9199999,9.4413331 C3.9199999,9.4413331 3.75333324,4.73199988 8.14266646,4.73199988 C9.01333311,4.73199988 9.88266642,4.70533322 10.7519997,4.68533322 C11.3546664,4.67199988 11.705333,4.31199989 11.713333,3.71599991 C11.721333,3.06666659 11.713333,2.41599994 11.7159997,1.76666662 C11.7186664,1.03333331 11.9866664,0.767999981 12.7199997,0.766666647 C18.2559995,0.766666647 23.7906661,0.766666647 29.3253326,0.767999981 C30.1893326,0.767999981 30.4999992,1.23466664 30.1759992,2.03066662 C29.6306659,3.37333325 29.2146659,4.75066655 29.0533326,6.19866651 C28.7453326,8.97066644 29.4799993,11.3253331 31.5146659,13.3399997 C36.6679991,18.4399995 38.087999,24.4639994 35.6373324,31.3199992" id="path202"></path>
                </g>
            </g>
            <polygon id="path14" fill="#fff" transform="translate(45.552000, 39.886000) scale(1, -1) translate(-45.552000, -39.886000) " points="47.1706666 40.5093332 45.9226666 37.0666667 45.1893333 37.0666667 43.9333333 40.5093332 43.9333333 37 43 37 43 42.7719999 44.0746666 42.7719999 45.5493333 38.4546666 47.0239999 42.7719999 48.1039999 42.7719999 48.1039999 37 47.1706666 37"></polygon>
        </g>
    </g>
</svg>
