<svg width="201" height="201" viewBox="0 0 201 201" fill="none" xmlns="http://www.w3.org/2000/svg">
<path d="M49.6707 89.747C44.8002 85.5883 27.5998 90.6001 27.5998 104.738C22.5972 103.335 15.6369 107.492 14.2221 114.609C12.6865 122.334 17.904 132.038 25.3907 133.134H64.2825M139.66 133.134H172.915C177.947 133.134 185.949 128.844 186.047 119.484C185.883 114.488 183.028 104.494 172.915 104.494C172.26 99.172 168.652 87.4438 151.257 89.747" stroke="#3E2804" stroke-width="7"/>
<path d="M112.293 110.173V104.607C96.9851 103.215 96.8555 94.9458 98.1719 87.5463C99.3454 80.9496 105.525 75.2949 117.636 76.8685C129.746 78.442 131.431 88.1301 131.13 93.4391C130.615 102.519 123.889 105.071 120.178 105.071L112.293 110.173Z" stroke="#3E2804" stroke-width="4"/>
<path d="M77.7143 105.779C68.5714 105.779 67 120.325 67 121.779H109C109 119.779 109 105.779 97.2857 105.779H77.7143Z" stroke="#ECECEC" stroke-width="4"/>
<path d="M98.2555 94.6309C98.2555 100.502 93.4958 105.262 87.6245 105.262C81.7532 105.262 76.9936 100.502 76.9936 94.6309C76.9936 88.7596 81.7532 84 87.6245 84C93.4958 84 98.2555 88.7596 98.2555 94.6309Z" stroke="#ECECEC" stroke-width="4"/>
<path d="M78.9406 108.046C70.9229 108.046 69.5449 118.068 69.5449 119.07H106.376C106.376 117.692 106.376 108.046 96.1036 108.046H78.9406Z" stroke="#3E2804" stroke-width="4"/>
<path d="M95.8575 94.8915C95.8575 99.3912 92.2098 103.039 87.71 103.039C83.2103 103.039 79.5626 99.3912 79.5626 94.8915C79.5626 90.3918 83.2103 86.7441 87.71 86.7441C92.2098 86.7441 95.8575 90.3918 95.8575 94.8915Z" stroke="#3E2804" stroke-width="4"/>
<circle cx="107.886" cy="91.1547" r="2.08739" fill="#3E2804"/>
<circle cx="114.844" cy="91.1547" r="2.08739" fill="#3E2804"/>
<circle cx="121.338" cy="91.1547" r="2.08739" fill="#3E2804"/>
<circle cx="100" cy="99.5041" r="51.0041" stroke="#DBDBDB" stroke-width="7"/>
<circle cx="100" cy="99.5041" r="44.51" stroke="#FFAA15" stroke-width="7"/>
</svg>
