<?xml version="1.0" encoding="utf-8"?>
<!-- Generator: Adobe Illustrator 16.0.0, SVG Export Plug-In . SVG Version: 6.00 Build 0)  -->
<!DOCTYPE svg PUBLIC "-//W3C//DTD SVG 1.1//EN" "http://www.w3.org/Graphics/SVG/1.1/DTD/svg11.dtd">
<svg version="1.1" id="Layer_1" xmlns="http://www.w3.org/2000/svg" xmlns:xlink="http://www.w3.org/1999/xlink" x="0px" y="0px"
	 width="200.203px" height="200.203px" viewBox="0 0 200.203 200.203" enable-background="new 0 0 200.203 200.203"
	 xml:space="preserve">
<path fill="#FFAA16" d="M114.602,75.142l-11.251,28.382l-9.068-21.079l-6.851,14.913l-8.813-12.753h-0.115v-0.063H57.642v2.53h9.289
	c0.924,2.926,2.283,5.602,4,7.875c4.832,7.602,15.654,19.521,27.291,26.25c0,0,14.015-6.197,26.962-25.541
	c1.623-1.965,2.975-4.262,3.98-6.789h10.234v-2.531h-19.047L114.602,75.142z"/>
<path fill="#FFAA16" d="M65.78,79.333h14.336l6.814,9.859l7.436-16.185l8.879,20.621l11.021-27.796l7.852,15.269l8.559,0.003
	c0.227-1.257,0.391-2.541,0.449-3.854c0.537-12.685-7.387-22.912-17.703-22.842c-6.001,0.036-11.487,3.553-15.14,8.983
	c-3.715-5.386-9.246-8.829-15.248-8.792c-10.317,0.068-18.109,10.396-17.407,23.072C65.659,78.23,65.719,78.783,65.78,79.333"/>
<path fill="#BABABA" d="M158.856,41.129H43.345c-4.688,0-8.488,3.798-8.488,8.484v76.383c0,4.686,3.801,8.484,8.488,8.484h37.021
	c0,0.029-0.008,0.055-0.008,0.084v10.031c0,0.016,0.004,0.027,0.004,0.037H41.356c-1.465,0-2.655,1.191-2.655,2.66v1.557
	c0,1.469,1.19,2.656,2.655,2.656h41.66h36.169h34.076h8.15c1.469,0,2.656-1.188,2.656-2.656v-1.557c0-1.469-1.188-2.66-2.656-2.66
	h-8.15H121.84c0-0.01,0.002-0.021,0.002-0.037v-10.031c0-0.029-0.006-0.055-0.006-0.084h37.02c4.689,0,8.49-3.799,8.49-8.484V49.614
	C167.346,44.927,163.545,41.129,158.856,41.129 M159.329,119.831c0,3.93-3.338,7.119-7.459,7.119H50.333
	c-4.121,0-7.459-3.189-7.459-7.119V55.777c0-3.93,3.338-7.116,7.459-7.116H151.87c4.121,0,7.459,3.187,7.459,7.116V119.831z"/>
<polygon fill="#3B2602" points="142.805,102.271 133.088,102.271 133.088,92.552 124.02,92.552 124.02,102.271 114.303,102.271 
	114.303,111.338 124.02,111.338 124.02,121.053 133.088,121.053 133.088,111.338 142.805,111.338 "/>
</svg>
