<?xml version="1.0" encoding="utf-8"?>
<!-- Generator: Adobe Illustrator 16.0.0, SVG Export Plug-In . SVG Version: 6.00 Build 0)  -->
<!DOCTYPE svg PUBLIC "-//W3C//DTD SVG 1.1//EN" "http://www.w3.org/Graphics/SVG/1.1/DTD/svg11.dtd">
<svg version="1.1" id="Layer_1" xmlns="http://www.w3.org/2000/svg" xmlns:xlink="http://www.w3.org/1999/xlink" x="0px" y="0px"
	 width="200.203px" height="200.203px" viewBox="0 0 200.203 200.203" enable-background="new 0 0 200.203 200.203"
	 xml:space="preserve">
<g>
	<circle fill="#3B2602" cx="41.907" cy="122.352" r="8.066"/>
</g>
<g>
	<circle fill="#3B2602" cx="71.536" cy="134.204" r="8.066"/>
</g>
<g>
	<circle fill="#3B2602" cx="128.161" cy="136.837" r="8.065"/>
</g>
<g>
	<circle fill="#3B2602" cx="170.299" cy="121.036" r="8.065"/>
</g>
<g>
	<circle fill="#FFAA16" cx="161.74" cy="55.605" r="8.065"/>
</g>
<g>
	<circle fill="#FFAA16" cx="129.478" cy="74.452" r="8.066"/>
</g>
<g>
	<circle fill="#FFAA16" cx="103.799" cy="55.605" r="8.066"/>
</g>
<g>
	<circle fill="#FFAA16" cx="47.175" cy="64.412" r="8.066"/>
</g>
<g>
	<defs>
		<rect id="SVGID_1_" x="20.293" y="37.003" width="164.605" height="117.83"/>
	</defs>
	<clipPath id="SVGID_2_">
		<use xlink:href="#SVGID_1_"  overflow="visible"/>
	</clipPath>
	<path clip-path="url(#SVGID_2_)" fill="none" stroke="#BABABA" stroke-width="5" d="M20.293,89.91c1.551,0,2.616,3.478,3.548,6.556
		c1.503,4.907,3.951,11.016,9.434,11.016c5.039,0,6.731-4.884,8.386-10.031c0.967-2.999,2.766-8.58,4.421-8.58
		c1.23,0,2.766,4.964,3.594,7.626c1.799,5.813,3.838,12.404,9.597,12.404c8.824,0,10.942-15.118,13.18-31.115
		c1.377-9.804,3.446-24.614,7.066-24.614c5.265,0,7.298,27.703,8.513,44.258c2.147,29.248,3.905,47.178,12.646,47.178
		c9.077,0,10.815-13.966,12.495-27.477c1.008-8.127,2.538-20.419,5.912-20.419c1.713,0,2.589,2.626,3.734,6.641
		c1.331,4.673,3.002,10.486,8.836,10.486c5.868,0,7.523-7.531,9.135-14.799c0.979-4.457,2.468-11.188,4.567-11.188
		c1.545,0,2.609,3.478,3.552,6.551c1.5,4.907,3.364,11.013,9.424,11.013h19.02v-4.547h-19.02c-2.415,0-3.533-3.071-4.964-7.77
		c-1.406-4.594-2.996-9.794-8.012-9.794c-5.861,0-7.517,7.515-9.114,14.781c-0.993,4.457-2.482,11.206-4.588,11.206
		c-2.141,0-3.113-2.839-4.349-7.17c-1.272-4.432-2.85-9.956-8.222-9.956c-7.496,0-8.909,11.319-10.534,24.421
		c-1.299,10.457-2.918,23.474-7.873,23.474c-4.848,0-6.827-26.888-8.002-42.951c-2.208-30.061-4.029-48.484-13.157-48.484
		c-7.681,0-9.532,13.228-11.674,28.544c-1.607,11.476-3.809,27.186-8.572,27.186c-2.31,0-3.881-5.087-5.149-9.172
		c-1.654-5.339-3.363-10.858-8.042-10.858c-5.063,0-7.081,6.25-8.856,11.764c-0.765,2.372-2.478,6.811-4.308,6.821
		c-1.838,0.021-3.249-3.292-4.613-7.744c-1.4-4.596-2.991-9.796-8.012-9.796"/>
</g>
</svg>
