<?xml version="1.0" encoding="utf-8"?>
<!-- Generator: Adobe Illustrator 16.0.0, SVG Export Plug-In . SVG Version: 6.00 Build 0)  -->
<!DOCTYPE svg PUBLIC "-//W3C//DTD SVG 1.1//EN" "http://www.w3.org/Graphics/SVG/1.1/DTD/svg11.dtd">
<svg version="1.1" id="Layer_1" xmlns="http://www.w3.org/2000/svg" xmlns:xlink="http://www.w3.org/1999/xlink" x="0px" y="0px"
	 width="200.203px" height="200.203px" viewBox="0 0 200.203 200.203" enable-background="new 0 0 200.203 200.203"
	 xml:space="preserve">
<g>
	<path opacity="0.2" fill="none" stroke="#231F20" stroke-width="7" stroke-linecap="round" stroke-linejoin="round" d="
		M43.089,45.723c0,0-13.469,4.898-15.306,18.979c0,0-6.734,7.347-7.958,10.407c-1.224,3.061-4.285,14.693-0.612,22.04
		c0,0-0.612,19.59,17.142,18.979c0,0,6.122,10.406,16.529,6.734c0,0,9.183,8.57,20.815,1.836c0,0,9.795,9.184,23.264,8.57
		c0,0,1.837,15.918,5.51,17.143s6.735,4.285,12.856,6.734c6.123,2.449,9.184,4.896,12.856,16.529c0,0,3.674,4.285,10.408,0
		s4.285-6.734,4.285-6.734s-4.898-12.244-4.898-15.305c0,0,9.184-2.449,12.244-9.184c0,0,12.856-0.611,17.142-7.959
		c4.285-7.346,7.348-28.774,12.244-34.895c4.898-6.122-3.061-14.693-3.061-14.693s4.898-15.917-4.898-21.427
		c0,0,0.613-28.773-23.263-25.712c0,0-9.795-19.591-36.732-9.184c0,0-8.571-7.346-15.918-0.612c0,0-15.917-8.57-28.161,6.735
		l-3.673,4.285C63.903,38.989,51.047,33.479,43.089,45.723z"/>
	<path opacity="0.2" fill="none" stroke="#231F20" stroke-width="4" stroke-linecap="round" stroke-linejoin="round" d="
		M66.352,38.989c0,0,14.081,3.061,20.203,12.244"/>
	<path opacity="0.2" fill="none" stroke="#231F20" stroke-width="4" stroke-linecap="round" stroke-linejoin="round" d="
		M111.656,28.581c0,0-13.469,12.245-7.959,25.713c5.511,13.468,15.306,24.488-4.285,18.978"/>
	<path opacity="0.2" fill="none" stroke="#231F20" stroke-width="4" stroke-linecap="round" stroke-linejoin="round" d="
		M103.697,54.294c0,0,4.897-8.571,14.693,1.225"/>
	<path opacity="0.2" fill="none" stroke="#231F20" stroke-width="4" stroke-linecap="round" stroke-linejoin="round" d="
		M137.98,56.743c0-17.754,10.408-18.979,10.408-18.979s-4.285,9.795,1.225,15.917s6.734,0,6.734,11.02"/>
	<path opacity="0.2" fill="none" stroke="#231F20" stroke-width="4" stroke-linecap="round" stroke-linejoin="round" d="
		M66.352,64.089c0,0-10.407,0-10.407,25.101"/>
	<path opacity="0.2" fill="none" stroke="#231F20" stroke-width="4" stroke-linecap="round" stroke-linejoin="round" d="
		M17.376,81.23c0,0,12.856-10.407,19.591-7.346c6.734,3.062,12.244,23.876,28.773,11.02c0,0,3.673,0.612,7.958,0
		s6.734-3.674,6.734-3.674"/>
	<path opacity="0.2" fill="none" stroke="#231F20" stroke-width="4" stroke-linecap="round" stroke-linejoin="round" d="
		M36.354,102.659c0,0,18.366-1.837,16.529,20.203"/>
	<path opacity="0.2" fill="none" stroke="#231F20" stroke-width="4" stroke-linecap="round" stroke-linejoin="round" d="
		M70.025,110.004c0,0,8.571-6.733,12.856-3.061"/>
	<path opacity="0.2" fill="none" stroke="#231F20" stroke-width="4" stroke-linecap="round" stroke-linejoin="round" d="
		M82.27,95.313c0,0,6.734,22.04-8.571,29.385"/>
	<path opacity="0.2" fill="none" stroke="#231F20" stroke-width="4" stroke-linecap="round" stroke-linejoin="round" d="
		M111.043,115.514c0,0-17.754,0.613-14.081,17.754"/>
	<path opacity="0.2" fill="none" stroke="#231F20" stroke-width="7" stroke-linecap="round" stroke-linejoin="round" d="
		M96.962,133.268c0,0,17.755,13.469,24.489-2.447c0,0,7.345,19.59,16.528,20.814"/>
	<path opacity="0.2" fill="none" stroke="#231F20" stroke-width="4" stroke-linecap="round" stroke-linejoin="round" d="
		M109.819,86.741c0,0,9.796,9.796,16.529,1.225s16.53-7.348,16.53-7.348"/>
	<path opacity="0.2" fill="none" stroke="#231F20" stroke-width="4" stroke-linecap="round" stroke-linejoin="round" d="
		M126.348,87.966c0,0,10.407-3.674,19.591,12.244c9.184,15.917-8.57,10.408-0.611,22.039c7.959,11.633,28.161-3.674,28.772-6.734
		c0.613-3.061,6.123-17.753-4.285-20.814c-10.407-3.062-7.958,9.183-18.366-1.225"/>
	<g>
		<polygon fill="none" stroke="#3B2602" stroke-width="3" points="40.028,57.355 92.677,83.067 130.021,97.148 157.572,111.84 
			158.183,75.109 128.185,60.416 107.37,36.54 75.536,48.784 		"/>
		<polyline fill="none" stroke="#3B2602" stroke-width="3" points="36.967,59.804 32.681,86.129 84.106,83.067 128.185,60.416 
			128.185,92.863 155.123,76.946 		"/>
		<line fill="none" stroke="#3B2602" stroke-width="3" x1="77.984" y1="46.947" x2="92.677" y2="83.067"/>
		<polyline fill="none" stroke="#3B2602" stroke-width="3" points="35.13,88.578 58.394,108.168 90.229,84.292 93.29,124.086 
			126.348,98.985 136.144,130.208 153.287,163.266 		"/>
		<polyline fill="none" stroke="#3B2602" stroke-width="3" points="58.394,108.168 93.902,126.534 136.144,130.208 		"/>
		<circle fill="#FFAA16" cx="40.027" cy="57.355" r="8.571"/>
		<circle fill="#FFAA16" cx="77.984" cy="46.947" r="8.571"/>
		<circle fill="#FFAA16" cx="107.371" cy="36.54" r="8.571"/>
		<circle fill="#FFAA16" cx="127.573" cy="57.355" r="8.571"/>
		<circle fill="#FFAA16" cx="155.123" cy="76.946" r="8.57"/>
		<circle fill="#FFAA16" cx="127.573" cy="95.313" r="8.571"/>
		<circle fill="#FFAA16" cx="92.677" cy="83.067" r="8.571"/>
		<circle fill="#FFAA16" cx="32.681" cy="86.129" r="8.571"/>
		<circle fill="#FFAA16" cx="58.394" cy="108.168" r="8.571"/>
		<circle fill="#FFAA16" cx="93.29" cy="124.086" r="8.571"/>
		<circle fill="#FFAA16" cx="136.144" cy="130.208" r="8.571"/>
		<circle fill="#FFAA16" cx="157.571" cy="111.84" r="8.57"/>
		<circle fill="#FFAA16" cx="150.225" cy="163.879" r="8.571"/>
	</g>
</g>
</svg>
