<?xml version="1.0" encoding="utf-8"?>
<!-- Generator: Adobe Illustrator 16.0.0, SVG Export Plug-In . SVG Version: 6.00 Build 0)  -->
<!DOCTYPE svg PUBLIC "-//W3C//DTD SVG 1.1//EN" "http://www.w3.org/Graphics/SVG/1.1/DTD/svg11.dtd">
<svg version="1.1" id="Layer_1" xmlns="http://www.w3.org/2000/svg" xmlns:xlink="http://www.w3.org/1999/xlink" x="0px" y="0px"
	 width="200.203px" height="200.203px" viewBox="0 0 200.203 200.203" enable-background="new 0 0 200.203 200.203"
	 xml:space="preserve">
<g>
	<path fill="none" stroke="#3B2602" stroke-width="2" stroke-dasharray="3" d="M123.142,60.124h29.636
		c12.771,0,23.124,10.354,23.124,23.126v27.984c0,12.772-10.354,23.126-23.124,23.126h-29.355"/>
	<polygon fill="#3B2602" points="127.505,65.334 119.335,60.618 127.505,55.902 	"/>
</g>
<g>
	<path fill="none" stroke="#3B2602" stroke-width="2" stroke-dasharray="3" d="M99.212,135.033H49.189
		c-12.771,0-23.125-10.354-23.125-23.125V83.919c0-12.769,10.354-23.123,23.125-23.123h29.355"/>
	<polygon fill="#3B2602" points="93.496,129.823 101.666,134.539 93.496,139.255 	"/>
</g>
<g>
	<g>
		<path fill="#FFAA16" d="M153.792,129.116c0,13.288-10.773,24.062-24.061,24.062c-13.288,0-24.061-10.773-24.061-24.062
			c0-13.285,10.772-24.06,24.061-24.06C143.018,105.056,153.792,115.831,153.792,129.116z"/>
	</g>
	<g>
		<path fill="#E9EAEB" d="M148.408,114.189c-0.402,0.325-1.044,0.389-1.438,0.035c0.45-0.484,0.284-1.249-0.125-1.8
			c-0.149-0.153-0.301-0.303-0.452-0.453c-0.94-0.717-2.302-0.848-3.355-0.306c-0.409,0.214-0.765,0.51-1.106,0.819
			c-0.827,0.752-1.625,1.679-1.683,2.794c-0.034,0.666,0.231,1.357,0.75,1.775c0.521,0.417,1.294,0.516,1.872,0.185
			c0.243-0.141,0.458-0.376,0.467-0.656c0.01-0.31-0.223-0.564-0.343-0.848c-0.374-0.87,0.634-1.96,1.53-1.654
			c-0.549,0.539-0.874,1.301-0.884,2.068c0.586,0.02,1.171,0.041,1.757,0.063c0.105,0.214-0.093,0.456-0.306,0.562
			c-0.213,0.104-0.466,0.149-0.63,0.318c-0.321,0.335-0.125,0.94-0.416,1.304c-0.373,0.465-1.104,0.137-1.644-0.121
			c-0.839-0.405-2.036-0.456-2.521,0.341c-0.217,0.356-0.292,0.873-0.689,1.004c-0.276,0.092-0.566-0.064-0.843-0.156
			c-0.277-0.096-0.661-0.08-0.77,0.191c-0.098,0.251,0.117,0.506,0.285,0.717c0.277,0.347,0.462,0.793,0.402,1.232
			c-0.059,0.443-0.414,0.857-0.855,0.887c-0.333,0.021-0.687-0.156-0.986-0.013c-0.333,0.162-0.376,0.656-0.167,0.962
			c0.207,0.303,0.578,0.452,0.937,0.542c1.017,0.258,2.392-0.042,2.593-1.071c0.041-0.21,0.036-0.449,0.188-0.596
			c0.113-0.108,0.28-0.131,0.437-0.149c0.497-0.058,1.072-0.09,1.423,0.268c0.157,0.162,0.242,0.382,0.322,0.593
			c0.286,0.749,0.57,1.501,0.854,2.25c-0.134-1.004-0.269-2.005-0.405-3.006c0.736,1.132,1.646,2.381,2.989,2.524
			c-0.509-0.149-0.646-0.835-0.475-1.339c0.17-0.5,0.539-0.914,0.723-1.411c0.073-0.194,0.123-0.411,0.276-0.548
			c0.247-0.221,0.635-0.141,0.943-0.02c0.787,0.306,1.508,0.777,2.104,1.377c-0.84-0.221-1.711-0.319-2.577-0.287
			c-0.306,0.01-0.638,0.048-0.858,0.258c-0.441,0.421-0.126,1.198,0.364,1.564c0.489,0.367,1.118,0.542,1.534,0.991
			c0.104,0.108,0.192,0.242,0.203,0.393c0.026,0.356-0.406,0.589-0.763,0.545c-0.355-0.045-0.662-0.265-0.997-0.389
			c-0.336-0.128-0.777-0.128-0.982,0.165c0.227,0.303,0.32,0.704,0.25,1.077c-0.706,0.055-1.438,0.086-2.097-0.169
			c-0.66-0.255-1.231-0.87-1.21-1.577c0.021-0.625,0.422-1.408-0.089-1.766c-0.143-0.102-0.325-0.127-0.5-0.121
			c-0.739,0.029-1.352,0.59-2.073,0.752c-0.309,0.07-0.629,0.064-0.938,0.131c-0.507,0.111-0.945,0.411-1.374,0.704
			c-0.843,0.58-1.741,1.228-2.062,2.199c-0.243,0.732-0.117,1.529-0.071,2.297c0.063,1.077-0.043,2.174,0.191,3.229
			c0.236,1.055,0.92,2.106,1.969,2.361c1.179-0.727,2.669-0.937,4.004-0.558c-0.459,0.59,0.045,1.428,0.569,1.963
			c0.523,0.532,1.135,1.23,0.857,1.922c-0.187,0.472-0.762,0.822-0.658,1.315c0.045,0.221,0.218,0.386,0.359,0.558
			c1.353,1.674-0.203,4.309,0.666,6.278c1.632,0.618,3.688-0.504,4.049-2.212c0.063-0.293,0.081-0.596,0.189-0.873
			c0.284-0.729,1.094-1.103,1.549-1.74c1.076-1.51-0.191-3.775,0.678-5.417c0.233-0.439,0.603-0.79,0.963-1.131
			c0.676-0.638,1.348-1.271,2.021-1.909c-0.82,0.099-1.709,0.115-2.41-0.321c-0.662-0.415-1.036-1.15-1.377-1.855
			c-0.618-1.274-1.247-2.581-1.411-3.992c0.515-0.315,1.111,0.261,1.443,0.768c0.665,1.017,1.36,2.154,1.193,3.355
			c-0.027,0.207-0.072,0.449,0.078,0.593c0.083,0.08,0.202,0.105,0.315,0.118c0.972,0.118,1.988-0.303,2.596-1.067
			c0.606-0.765,0.782-1.849,0.447-2.767c0.142,0.022,0.283,0.048,0.424,0.07C153.456,122.975,151.529,118.083,148.408,114.189z"/>
	</g>
	<g>
		<path fill="#E9EAEB" d="M135.207,106.879c-0.125,0.125-0.231,0.284-0.306,0.434c-0.333,0.695-0.501,1.462-0.495,2.234
			c0,0.232,0.005,0.497-0.146,0.672c-0.098,0.105-0.232,0.163-0.351,0.242c-0.632,0.427-0.57,1.504-1.247,1.864
			c-0.186,0.096-0.4,0.125-0.608,0.153c-0.755,0.114-1.512,0.338-2.153,0.755c-0.645,0.418-1.168,1.049-1.354,1.795
			c-0.027,0.117-0.056,0.241-0.146,0.321c-0.073,0.061-0.181,0.073-0.28,0.08c-0.271,0.021-0.543,0.021-0.813,0.009
			c-0.078-0.006-0.164-0.009-0.226-0.057c-0.125-0.09-0.129-0.265-0.125-0.421c0.069-1.297,0.153-2.623-0.186-3.882
			c-0.338-1.249-1.189-2.45-2.435-2.823c-0.249-0.08-0.514-0.118-0.744-0.242c-0.231-0.125-0.424-0.36-0.406-0.622
			c-0.823,0.016-1.618,0.503-2.013,1.224c-0.193,0.351-0.288,0.762-0.193,1.15c0.21,0.777,1.089,1.128,1.709,1.65
			c0.679,0.584,1.072,1.485,1.031,2.374c-1.025,0.511-2.237-0.003-3.258-0.522c0.068-0.434,0.236-0.857,0.502-1.211
			c0.112-0.152,0.243-0.313,0.254-0.497c0.011-0.306-0.338-0.532-0.644-0.49c-0.304,0.044-0.551,0.258-0.755,0.49
			c-0.604,0.676-1.003,1.523-1.149,2.419c-0.436,0.083-0.824-0.344-1.264-0.335c-0.418,0.007-0.723,0.386-0.964,0.724
			c-0.345,0.497-0.711,1.049-0.644,1.645c0.101,0.904,1.111,1.405,2.008,1.567c0.129,0.029,0.27,0.051,0.371,0.144
			c0.192,0.179,0.125,0.491,0.108,0.749c-0.018,0.261,0.157,0.603,0.406,0.525c0.095-0.035,0.163-0.117,0.219-0.204
			c0.496-0.7,1.004-1.434,1.123-2.284c0.072-0.507,0.005-1.059,0.236-1.517c0.051-0.096,0.112-0.186,0.208-0.236
			c0.108-0.051,0.236-0.035,0.356-0.01c0.4,0.077,0.807,0.207,1.098,0.488c0.294,0.283,0.44,0.745,0.256,1.105
			c0.287,0.232,0.704,0.213,1.042,0.373c0.683,0.334,0.801,1.232,0.829,1.994c0,0.073,0,0.16-0.045,0.217
			c-0.046,0.055-0.113,0.073-0.181,0.093c-0.638,0.21-0.941,0.908-1.285,1.485c-0.491,0.806-1.201,1.472-2.036,1.905
			c-0.739,0.382-1.234,1.357-1.782,1.991c-0.631,0.727-1.29,1.521-1.414,2.479c-0.052,0.401,0,0.819-0.136,1.201
			c-0.56-0.542-0.599-1.479-1.195-1.973c-0.536-0.433-1.358-0.351-1.935,0.038c-0.569,0.39-0.936,1.011-1.229,1.635
			c-0.174,0.38-0.338,0.791-0.264,1.202c0.101,0.558,0.676,0.975,1.244,0.965c0.576-0.006,1.106-0.389,1.366-0.898
			c0.281,0.322,0.445,0.752,0.45,1.179c0.005,0.38-0.05,0.87,0.293,1.021c0.198,0.086,0.451,0.006,0.615,0.144
			c0.198,0.155,0.107,0.462,0.085,0.713c-0.068,0.635,0.479,1.253,1.116,1.275c0.163,0.006,0.333-0.029,0.468-0.125
			c0.129-0.082,0.22-0.22,0.344-0.315c0.215-0.162,0.497-0.185,0.761-0.2c0.615-0.035,1.235-0.051,1.85-0.058
			c0.21-0.006,0.423-0.006,0.62,0.058c0.248,0.07,0.464,0.229,0.671,0.382c0.654,0.497,1.314,0.985,1.973,1.476
			c0.994,0.746,2.003,1.508,2.759,2.498c0.585,0.121,0.98,0.256,1.567,0.373c0.226,0.045,0.468,0.103,0.614,0.28
			c0.275,0.335,0.046,0.826-0.157,1.205c-0.441,0.822-0.729,1.728-0.841,2.654c-0.073,0.625-0.09,1.297-0.461,1.797
			c-0.357,0.469-0.949,0.683-1.513,0.845c-0.14,0.042-0.287,0.08-0.395,0.179c-0.118,0.093-0.18,0.242-0.248,0.382
			c-0.36,0.778-0.892,1.476-1.539,2.037c-0.423,0.363-0.896,0.669-1.313,1.035c-0.648,0.58-1.15,1.313-1.641,2.036
			c-0.282,0.411-0.564,0.835-0.693,1.313c-0.227-0.096-0.452-0.191-0.671-0.287c-0.039-0.459,0.05-0.931,0.134-1.387
			c0.182-1.022,0.283-2.058,0.306-3.097c0.01-0.711-0.017-1.431-0.208-2.119c-0.182-0.653-0.496-1.259-0.818-1.854
			c-0.49-0.928-0.982-1.849-1.472-2.775c-0.631-1.189-1.286-2.572-0.817-3.841c0.134-0.359,0.354-0.697,0.354-1.08
			c0-0.538-0.434-0.965-0.834-1.325c-0.559-0.504-1.116-1.011-1.674-1.511c-1.026-0.927-2.397-1.479-3.693-1.94
			c-0.509-0.182-1.05-0.338-1.455-0.695c-0.739-0.64-0.862-1.717-1.156-2.654c-0.237-0.762-0.621-1.472-0.896-2.221
			c-0.277-0.752-0.451-1.574-0.255-2.346c0.255-0.978,1.038-1.641,1.117-2.645c0.028-0.401-0.023-0.79-0.107-1.179
			c3.959-7.753,12.021-13.065,21.324-13.065c1.652,0,3.271,0.169,4.837,0.491C134.771,106.095,134.987,106.49,135.207,106.879z"/>
	</g>
</g>
<g>
	<g>
		<path fill="#BABABA" d="M96.035,89.856L96.035,89.856c0-0.503-0.408-0.911-0.91-0.911H78.399c-0.503,0-0.91,0.408-0.91,0.911l0,0
			c0,0.5,0.407,0.908,0.91,0.908h16.727C95.627,90.764,96.035,90.356,96.035,89.856z"/>
	</g>
	<g>
		<g>
			<polygon fill="#E6E9EE" points="91.907,83.819 81.617,83.819 79.219,88.945 94.306,88.945 			"/>
		</g>
		<g>
			<polygon fill="#BABABA" points="92.716,85.546 91.907,83.819 81.617,83.819 80.809,85.546 			"/>
		</g>
		<g>
			<path fill="#3B2602" d="M114.499,45.327v32.005H59.027V45.327c0-1.239,1.002-2.241,2.241-2.241h50.99
				C113.494,43.086,114.499,44.088,114.499,45.327z"/>
		</g>
		<g>
			<path fill="#E6E9EE" d="M59.026,77.33v4.624c0,1.24,1.004,2.244,2.242,2.244h50.989c1.238,0,2.242-1.004,2.242-2.244V77.33
				H59.026z"/>
		</g>
		<g>
			<circle fill="#BABABA" cx="86.762" cy="80.763" r="1.634"/>
		</g>
		<g>
			<rect x="61.46" y="46.008" fill="#FFFFFF" width="50.604" height="28.4"/>
		</g>
		<g>
			<rect x="61.46" y="46.008" fill="#FFAA16" width="50.604" height="4.145"/>
		</g>
		<g opacity="0.5">
			<rect x="69.049" y="54.854" fill="#FFAA16" width="2.658" height="16.657"/>
		</g>
		<g opacity="0.5">
			<rect x="73.368" y="62.662" fill="#FFAA16" width="2.658" height="8.849"/>
		</g>
		<g opacity="0.5">
			<rect x="77.686" y="57.665" fill="#FFAA16" width="2.658" height="13.846"/>
		</g>
		<g opacity="0.5">
			<rect x="82.004" y="59.499" fill="#FFAA16" width="2.658" height="12.012"/>
		</g>
		<g opacity="0.5">
			<rect x="86.323" y="52.94" fill="#FFAA16" width="2.658" height="18.57"/>
		</g>
		<g opacity="0.5">
			<rect x="90.643" y="62.662" fill="#FFAA16" width="2.656" height="8.849"/>
		</g>
		<g>
			<polygon fill="#CED5E0" points="97.503,72.365 64.295,72.365 64.295,52.217 66.056,52.217 66.056,70.655 97.503,70.655 			"/>
		</g>
		<g>
			<g>
				<rect x="101.002" y="56.392" fill="#E6E9EE" width="9.008" height="0.785"/>
			</g>
			<g>
				<rect x="101.002" y="59.011" fill="#E6E9EE" width="9.008" height="0.785"/>
			</g>
			<g>
				<rect x="101.002" y="61.631" fill="#E6E9EE" width="9.008" height="0.785"/>
			</g>
			<g>
				<rect x="101.002" y="64.251" fill="#E6E9EE" width="9.008" height="0.784"/>
			</g>
			<g>
				<rect x="101.002" y="66.871" fill="#E6E9EE" width="9.008" height="0.785"/>
			</g>
			<g>
				<rect x="101.002" y="69.49" fill="#E6E9EE" width="9.008" height="0.784"/>
			</g>
		</g>
	</g>
</g>
</svg>
